<svg id="Capa_1" data-name="Capa 1" xmlns="http://www.w3.org/2000/svg" viewBox="0 0 1080 1080"><defs><style>.cls-1{fill:#361251;}</style></defs><title>Logo Rubbex - RGB</title><path class="cls-1" d="M346.65,571.67q0,21.17-7.87,29a27.33,27.33,0,0,1-38.38,0q-7.87-7.87-7.87-29V490.49H255.91q-3.82-19.38-18.43-34.93-19.8-21-54-21H90V641.17h44.28V572.29h44.53q18.19,0,25,11.93t6.76,31.36q2,20.17,10.09,26.33h40.1a131.94,131.94,0,0,1-8.37-34.44q-.21-4.61-.78-8.8a65.78,65.78,0,0,0,15.12,27q18.45,19.8,48,19.8,23.11,0,37.14-13L356.49,643h34.44V490.49H346.65ZM203.65,526A30.82,30.82,0,0,1,181,535.39H134.28v-64H181A32,32,0,0,1,203.65,526Zm21.9,33.21q14.82-10.11,22.7-22.71v37.59a97,97,0,0,0,.94,13.34Q243.07,567,225.55,559.25Z"/><path class="cls-1" d="M831.19,620.63,799.7,600.46a54.2,54.2,0,0,1-28.29,8.11q-16.74,0-25.34-8T737.71,584H843.49a130.14,130.14,0,0,0,1.72-17.22q0-36.4-21.52-57.56T769,488q-33.21,0-54.74,21.16a68.28,68.28,0,0,0-17,27.45c-3.33-11.46-8.72-21-16.34-28.56Q660.58,488,629.58,488q-23.87,0-36.66,10.09V436.37H548.64v94.68a62.69,62.69,0,0,0-14.52-23Q513.83,488,482.83,488q-23.86,0-36.66,10.09V436.37H401.89V643h34.44l4.92-9.84q14,12.3,39.12,12.29,33.45,0,53.75-21.27a68.87,68.87,0,0,0,14.52-23.31V643h34.44l4.92-9.84q14,12.3,39.12,12.29,33.45,0,53.75-21.27A70,70,0,0,0,697,596.09a69.55,69.55,0,0,0,17.07,28q21.4,21.4,57.32,21.4Q809.29,645.47,831.19,620.63Zm-82.66-87.7q8.61-8,22.88-8t23.37,8q9.09,8,8.61,18.57H740.17Q739.92,540.93,748.53,532.93ZM500.91,598.24q-9,10.34-24.23,10.33-15.51,0-25-9.84t-10.45-27.3v-9.35q1-17.46,10.45-27.31t25-9.84q15.24,0,24.23,10.33t9,31.49Q509.88,587.92,500.91,598.24Zm146.75,0q-9,10.34-24.23,10.33-15.51,0-25-9.84T588,571.43v-9.35q1-17.46,10.46-27.31t25-9.84q15.24,0,24.23,10.33t9,31.49Q656.63,587.92,647.66,598.24Z"/><polygon class="cls-1" points="990 490.49 935.88 490.49 908.08 530.84 880.03 490.49 826.16 490.49 880.77 566.75 826.16 643.01 880.03 643.01 908.08 602.67 935.88 643.01 990 643.01 935.39 566.75 990 490.49"/></svg>