<svg id="Capa_1" data-name="Capa 1" xmlns="http://www.w3.org/2000/svg" viewBox="0 0 1080 1080"><title>Logo Rubbex - RGB</title><path d="M293,540.48q0,16.74-6.23,23a21.61,21.61,0,0,1-30.36,0q-6.23-6.23-6.23-23V476.26h-29a55.43,55.43,0,0,0-14.58-27.63Q191,432,164,432H90V595.46h35V541h35.22q14.4,0,19.75,9.44t5.35,24.81q1.56,16,8,20.82h31.72a104.53,104.53,0,0,1-6.62-27.24q-.17-3.64-.62-7a52.16,52.16,0,0,0,12,21.36q14.6,15.66,38,15.66,18.28,0,29.38-10.31l3.7,8.37H328V476.26H293ZM179.9,504.38a24.34,24.34,0,0,1-17.9,7.4H125v-50.6h37a25.31,25.31,0,0,1,17.9,43.2Zm17.32,26.27q11.73-8,18-18v29.74a76.29,76.29,0,0,0,.74,10.55Q211.08,536.78,197.22,530.65Z"/><path d="M676.3,579.21l-24.91-16A42.88,42.88,0,0,1,629,569.67q-13.23,0-20-6.32t-6.62-13.14H686a101.48,101.48,0,0,0,1.36-13.62q0-28.8-17-45.54t-43.3-16.73q-26.28,0-43.3,16.73a54.06,54.06,0,0,0-13.45,21.72c-2.63-9.07-6.9-16.63-12.93-22.59q-16-15.85-40.57-15.86-18.89,0-29,8V433.45h-35v74.9a49.62,49.62,0,0,0-11.49-18.17q-16.05-15.85-40.57-15.86-18.89,0-29,8V433.45h-35V596.92H364l3.9-7.79q11.08,9.74,30.94,9.73,26.46,0,42.52-16.83A54.58,54.58,0,0,0,452.8,563.6v33.32H480l3.89-7.79q11.1,9.74,30.94,9.73,26.46,0,42.52-16.83a55.27,55.27,0,0,0,12.78-22.24,55,55,0,0,0,13.5,22.14q16.94,16.94,45.34,16.93Q659,598.86,676.3,579.21Zm-65.38-69.38q6.8-6.31,18.09-6.32t18.49,6.32q7.2,6.33,6.81,14.7h-50Q604.11,516.16,610.92,509.83ZM415,561.5q-7.11,8.18-19.17,8.17-12.25,0-19.75-7.78t-8.27-21.6v-7.4q.78-13.82,8.27-21.6t19.75-7.78q12.06,0,19.17,8.17t7.1,24.91Q422.14,553.33,415,561.5Zm116.08,0Q524,569.68,512,569.67q-12.26,0-19.75-7.78t-8.27-21.6v-7.4q.78-13.82,8.27-21.6T512,503.51q12.06,0,19.17,8.17t7.1,24.91Q538.22,553.33,531.12,561.5Z"/><path d="M971.25,409.45a64.35,64.35,0,0,0-90.81,0l-7.78,7.78-7.78-7.78a64.16,64.16,0,0,0-109.57,45.41A64.49,64.49,0,0,0,759,476.44l-21.87,31.74-22.18-31.92H672.32l43.2,60.33-43.2,60.33h42.62L737.12,565l22,31.92h42.81l-43.2-60.33,21.56-30.11,92.38,92.38,98.59-98.59a64.36,64.36,0,0,0,0-90.82Zm-95.12,34.83c13.39,10.79,20.47,23.67,20.47,37.24H885.54c0-12.77-8.9-22.61-16.35-28.62Zm79.47,40.33-82.94,82.94-82.94-82.94a42.08,42.08,0,0,1,59.5-59.51l7.66,7.66c-15.71,15.56-24,33.44-24,52,0,21.9,11.35,42.62,32.81,59.91l6.95,5.6,6.94-5.6c21.47-17.29,32.81-38,32.81-59.91,0-18.57-8.26-36.45-24-52l7.65-7.66a42.08,42.08,0,0,1,59.51,59.51Z"/></svg>