<!-- Generator: Adobe Illustrator 22.1.0, SVG Export Plug-In  -->
<svg version="1.1"
	 xmlns="http://www.w3.org/2000/svg" xmlns:xlink="http://www.w3.org/1999/xlink" xmlns:a="http://ns.adobe.com/AdobeSVGViewerExtensions/3.0/"
	 x="0px" y="0px" width="900px" height="208.2px" viewBox="0 0 900 208.2"
	 style="overflow:scroll;enable-background:new 0 0 900 208.2;" xml:space="preserve">
<style type="text/css">
	.st0{fill:#161616;}
	.st1{fill:#E60065;}
</style>
<defs>
</defs>
<g>
	<path class="st0" d="M203,149.8c0,11.2-2.1,18.8-6.2,23c-4.2,4.2-9.2,6.2-15.2,6.2s-11-2.1-15.2-6.2c-4.2-4.2-6.2-11.8-6.2-23V85.6
		h-29c-2-10.2-6.9-19.4-14.6-27.6C106.2,46.8,92,41.3,73.9,41.3H0v163.5h35v-54.5h35.2c9.6,0,16.2,3.1,19.8,9.4
		c3.6,6.3,5.4,14.6,5.4,24.8c1,10.6,3.7,17.6,8,20.8h31.7c-3.5-9.1-5.7-18.2-6.6-27.2c-0.1-2.4-0.3-4.7-0.6-7
		c2.4,8.2,6.3,15.3,12,21.4c9.7,10.4,22.4,15.7,37.9,15.7c12.2,0,22-3.4,29.4-10.3l3.7,8.4H238V85.6h-35V149.8z M89.9,113.7
		c-4.9,4.9-10.9,7.4-17.9,7.4H35V70.5h37c7,0,13,2.5,17.9,7.4c4.9,4.9,7.4,10.9,7.4,17.9C97.3,102.8,94.8,108.8,89.9,113.7z
		 M107.2,140c7.8-5.3,13.8-11.3,18-18v29.7c0,3.7,0.3,7.2,0.7,10.5C122.7,151.5,116.5,144,107.2,140z"/>
	<path class="st0" d="M586.3,188.5l-24.9-16c-7.1,4.3-14.6,6.4-22.4,6.4c-8.8,0-15.5-2.1-20-6.3c-4.5-4.2-6.7-8.6-6.6-13.1H596
		c0.9-6.1,1.4-10.6,1.4-13.6c0-19.2-5.7-34.4-17-45.5c-11.4-11.2-25.8-16.7-43.3-16.7c-17.5,0-31.9,5.6-43.3,16.7
		c-6.2,6.1-10.6,13.3-13.4,21.7c-2.6-9.1-6.9-16.6-12.9-22.6c-10.7-10.6-24.2-15.9-40.6-15.9c-12.6,0-22.3,2.7-29,8V42.8h-35v74.9
		c-2.7-7.1-6.5-13.2-11.5-18.2c-10.7-10.6-24.2-15.9-40.6-15.9c-12.6,0-22.3,2.7-29,8V42.8h-35v163.5H274l3.9-7.8
		c7.4,6.5,17.7,9.7,30.9,9.7c17.6,0,31.8-5.6,42.5-16.8c5-5.3,8.8-11.4,11.5-18.4v33.3H390l3.9-7.8c7.4,6.5,17.7,9.7,30.9,9.7
		c17.6,0,31.8-5.6,42.5-16.8c5.9-6.2,10.1-13.6,12.8-22.2c2.8,8.5,7.3,15.9,13.5,22.1c11.3,11.3,26.4,16.9,45.3,16.9
		C559,208.2,574.8,201.6,586.3,188.5z M520.9,119.1c4.5-4.2,10.6-6.3,18.1-6.3c7.5,0,13.7,2.1,18.5,6.3c4.8,4.2,7.1,9.1,6.8,14.7
		h-50C514.2,128.2,516.4,123.3,520.9,119.1z M325,170.8c-4.7,5.4-11.1,8.2-19.2,8.2c-8.2,0-14.8-2.6-19.8-7.8
		c-5-5.2-7.8-12.4-8.3-21.6v-7.4c0.5-9.2,3.3-16.4,8.3-21.6c5-5.2,11.6-7.8,19.8-7.8c8,0,14.4,2.7,19.2,8.2
		c4.7,5.4,7.1,13.8,7.1,24.9C332.1,157,329.8,165.3,325,170.8z M441.1,170.8c-4.7,5.4-11.1,8.2-19.2,8.2c-8.2,0-14.8-2.6-19.8-7.8
		c-5-5.2-7.8-12.4-8.3-21.6v-7.4c0.5-9.2,3.3-16.4,8.3-21.6c5-5.2,11.6-7.8,19.8-7.8c8,0,14.4,2.7,19.2,8.2
		c4.7,5.4,7.1,13.8,7.1,24.9C448.2,157,445.9,165.3,441.1,170.8z"/>
	<path class="st1" d="M881.3,18.7C869.2,6.7,853,0,835.8,0c-17.2,0-33.3,6.7-45.4,18.7l-7.8,7.8l-7.8-7.8C762.8,6.7,746.7,0,729.5,0
		c-17.2,0-33.3,6.7-45.4,18.7C672,30.8,665.3,47,665.3,64.2s6.7,33.3,18.8,45.4l98.6,98.6l98.6-98.6C893.3,97.5,900,81.4,900,64.2
		C900,47,893.3,30.8,881.3,18.7z M786.1,53.6c13.4,10.8,20.5,23.7,20.5,37.2h-11.1c0-12.8-8.9-22.6-16.3-28.6L786.1,53.6z
		 M865.6,93.9l-82.9,82.9l-82.9-82.9c-7.9-7.9-12.3-18.5-12.3-29.8s4.4-21.8,12.3-29.8c7.9-7.9,18.5-12.3,29.7-12.3
		c11.3,0,21.9,4.4,29.8,12.3l7.7,7.7c-15.7,15.6-24,33.4-24,52c0,21.9,11.3,42.6,32.8,59.9l6.9,5.6l6.9-5.6
		c21.5-17.3,32.8-38,32.8-59.9c0-18.6-8.3-36.5-24-52l7.7-7.7c7.9-7.9,18.5-12.3,29.8-12.3c11.3,0,21.8,4.4,29.8,12.3
		c7.9,7.9,12.3,18.5,12.3,29.8C877.9,75.4,873.5,86,865.6,93.9z"/>
	<path class="st0" d="M690.3,115.8l-6.2-6.2c-6.8-6.8-11.9-15-15.1-23.8l-21.9,31.7l-22.2-31.9h-42.6l43.2,60.3l-43.2,60.3h42.6
		l22.2-31.9l22,31.9h42.8l-43.2-60.3L690.3,115.8z"/>
</g>
</svg>
