<!-- Generator: Adobe Illustrator 22.1.0, SVG Export Plug-In  -->
<svg version="1.1"
	 xmlns="http://www.w3.org/2000/svg" xmlns:xlink="http://www.w3.org/1999/xlink" xmlns:a="http://ns.adobe.com/AdobeSVGViewerExtensions/3.0/"
	 x="0px" y="0px" width="900px" height="798.3px" viewBox="0 0 900 798.3"
	 style="overflow:scroll;enable-background:new 0 0 900 798.3;" xml:space="preserve">
<style type="text/css">
	.st0{fill:#600B50;}
</style>
<defs>
</defs>
<path class="st0" d="M828.1,71.9C781.8,25.5,719.9,0,654,0C588,0,526.2,25.5,479.8,71.9L450,101.7l-29.8-29.8
	C373.8,25.5,312,0,246,0C180.1,0,118.3,25.5,71.9,71.9C25.5,118.2,0,180.1,0,246s25.5,127.8,71.9,174.1L450,798.3l378.1-378.1
	c46.3-46.3,71.8-108.1,71.9-174.1C900,180.1,874.5,118.2,828.1,71.9z M463.3,205.5c51.4,41.4,78.5,90.8,78.5,142.8h-42.5
	c0-49-34.1-86.7-62.7-109.8L463.3,205.5z M768.1,360.1L450,678.2L131.9,360.1c-30.3-30.3-47-70.9-47-114.1s16.7-83.8,47-114.1
	c30.3-30.3,70.8-47,114.1-47c43.3,0,83.8,16.7,114.2,47l29.3,29.3c-60.2,59.7-91.9,128.3-91.9,199.5c0,84,43.5,163.4,125.8,229.8
	l26.6,21.4l26.6-21.4c82.3-66.3,125.8-145.8,125.8-229.8c0-71.2-31.7-139.8-91.9-199.5l29.3-29.3c30.3-30.3,70.8-47,114.1-47
	c43.3,0,83.8,16.7,114.1,47c30.3,30.3,47,70.9,47,114.1C815.1,289.3,798.4,329.8,768.1,360.1z"/>
</svg>
