<svg id="Capa_1" data-name="Capa 1" xmlns="http://www.w3.org/2000/svg" viewBox="0 0 1080 1080"><defs><style>.cls-1{fill:#e60065;}</style></defs><title>Logo Rubbex - RGB</title><path class="cls-1" d="M918.11,212.76C871.76,166.4,809.92,140.87,744,140.87s-127.77,25.55-174.11,71.89L540,242.6l-29.83-29.84C463.83,166.4,402,140.87,336,140.87S208.27,166.4,161.91,212.76,90,321,90,386.89,115.54,514.67,161.91,561L540,939.13,918.11,561c46.3-46.3,71.83-108.11,71.89-174.09S964.48,259.12,918.11,212.76ZM553.32,346.33c51.37,41.38,78.52,90.76,78.52,142.8H589.39c0-49-34.09-86.71-62.7-109.76ZM858.08,501,540,819.07,221.94,501a161.37,161.37,0,0,1,228.2-228.21l29.35,29.34c-60.24,59.68-91.94,128.26-91.94,199.47,0,84,43.51,163.44,125.83,229.77L540,752.81l26.64-21.45C649,665,692.45,585.59,692.45,501.6c0-71.21-31.68-139.78-91.92-199.47l29.34-29.34A161.37,161.37,0,0,1,858.08,501Z"/></svg>