<?xml version="1.0" encoding="UTF-8" standalone="no"?>
<svg
   xmlns:dc="http://purl.org/dc/elements/1.1/"
   xmlns:cc="http://creativecommons.org/ns#"
   xmlns:rdf="http://www.w3.org/1999/02/22-rdf-syntax-ns#"
   xmlns:svg="http://www.w3.org/2000/svg"
   xmlns="http://www.w3.org/2000/svg"
   xmlns:sodipodi="http://sodipodi.sourceforge.net/DTD/sodipodi-0.dtd"
   xmlns:inkscape="http://www.inkscape.org/namespaces/inkscape"
   viewBox="0 0 1000 100"
   preserveAspectRatio="none"
   id="svg2"
   version="1.1"
   inkscape:version="0.91 r13725"
   sodipodi:docname="wave.svg">
  <metadata
     id="metadata10">
    <rdf:RDF>
      <cc:Work
         rdf:about="">
        <dc:format>image/svg+xml</dc:format>
        <dc:type
           rdf:resource="http://purl.org/dc/dcmitype/StillImage" />
      </cc:Work>
    </rdf:RDF>
  </metadata>
  <defs
     id="defs8" />
  <sodipodi:namedview
     pagecolor="#ffffff"
     bordercolor="#666666"
     borderopacity="1"
     objecttolerance="10"
     gridtolerance="10"
     guidetolerance="10"
     inkscape:pageopacity="0"
     inkscape:pageshadow="2"
     inkscape:window-width="1366"
     inkscape:window-height="741"
     id="namedview6"
     showgrid="false"
     inkscape:zoom="0.249"
     inkscape:cx="500"
     inkscape:cy="50"
     inkscape:window-x="0"
     inkscape:window-y="0"
     inkscape:window-maximized="1"
     inkscape:current-layer="svg2" />
  <path
     class="elementor-shape-fill"
     d="m 421.9,92.501779 c 22.6,2.5 51.5,-0.4 75.5,-5.3 23.6,-4.9 70.9,-23.5 100.5,-35.7 75.8,-32.2 133.7,-44.4999997 192.6,-49.6999997 23.6,-2.10000004 48.7,-3.5 103.4,2.5 54.7,5.9999997 106.2,25.5999997 106.2,25.5999997 l 0,69.1 -1000.09999926465854,0 0,-30.3 c 0,0 72.00000026465852,-32.6 158.39999926465853,-30.5 39.2,0.7 92.8,6.7 134,22.4 21.2,8.1 52.2,18.2 79.7,24.2 27.2,6.3 39.5,6.7 49.8,7.7 z"
     id="path4"
     style="fill:#ffffff"
     inkscape:connector-curvature="0" />
</svg>
